<svg width="171" height="187" viewBox="0 0 171 187" fill="none" xmlns="http://www.w3.org/2000/svg">
<mask id="mask0_1732_5" style="mask-type:luminance" maskUnits="userSpaceOnUse" x="0" y="0" width="171" height="187">
<path d="M122.959 186.599L0.691757 39.8621L48.0451 0.405275L170.312 147.142L122.959 186.599Z" fill="white"/>
</mask>
<g mask="url(#mask0_1732_5)">
<path d="M22.9424 35.6282C28.6607 32.7496 34.1532 29.8497 40.466 26.6854C37.4177 23.7763 33.9062 23.5586 31.0767 24.6588C22.5881 27.9594 14.0797 31.4862 5.96385 35.7337C1.31149 38.1432 1.59379 42.7283 6.01736 45.5393C13.3424 50.3339 20.9329 54.6976 28.5036 59.2875C28.9356 59.5562 29.4708 59.9486 29.8196 59.8676C31.1948 59.7696 32.4867 59.3219 33.8817 58.9978C33.5287 57.8249 33.6671 56.2425 32.9259 55.6027C30.3929 53.3121 27.7173 51.3499 25.1646 49.2854C23.7851 48.1295 22.3859 47.1995 21.351 44.7086C23.9589 44.841 26.6895 44.8711 29.2974 45.0035C83.0638 50.0827 126.001 89.1246 136.733 142.218C138.07 149.068 138.606 155.957 139.594 162.887C139.952 165.314 140.432 167.639 140.789 170.066C141.344 170.232 141.918 170.172 142.473 170.339C143.27 169.046 144.641 167.695 144.656 166.215C144.969 161.344 145.281 156.473 144.915 151.538C141.465 102.437 106.766 59.0457 58.1178 43.6236C48.8075 40.6927 39.0101 39.4253 29.498 37.5011C27.4845 37.083 25.5545 37.0146 23.5212 36.8226C23.1923 36.6775 23.0059 36.2041 22.9424 35.6282Z" fill="currentColor"/>
</g>
</svg>
