<svg width="130" height="28" viewBox="0 0 130 28" fill="none" xmlns="http://www.w3.org/2000/svg">
<circle cx="4.71155" cy="10.9039" r="4.71155" fill="#E27687"/>
<circle cx="17.3649" cy="4.71155" r="4.71155" fill="#8E92F5"/>
<circle cx="4.71155" cy="23.2882" r="4.71155" fill="#8E92F5"/>
<circle cx="17.3649" cy="17.0963" r="4.71155" fill="#EC8A87"/>
<path d="M123.331 21.8146C122.553 21.8146 121.819 21.6232 121.127 21.2405C120.436 20.8578 119.88 20.3084 119.461 19.5924C119.041 18.864 118.831 17.9813 118.831 16.9442V10.3701H121.738V16.5553C121.738 17.2467 121.942 17.8578 122.35 18.3887C122.769 18.9195 123.35 19.185 124.09 19.185C124.708 19.185 125.257 18.9627 125.738 18.5183C126.22 18.0738 126.461 17.438 126.461 16.6109V10.3701H129.368V21.4813H126.72V20.1479C126.325 20.6911 125.831 21.1047 125.238 21.3887C124.646 21.6726 124.01 21.8146 123.331 21.8146Z" fill="#14173A"/>
<path d="M112.017 21.4814V12.7036H109.832V10.3702H112.073V6.6665H114.869V10.3702H117.202V12.7036H114.925V21.4814H112.017Z" fill="#14173A"/>
<path d="M98.0381 21.4816V10.3704H100.649V11.7408C101.057 11.1853 101.557 10.7655 102.149 10.4816C102.742 10.1853 103.384 10.0371 104.075 10.0371C104.865 10.0371 105.6 10.2285 106.279 10.6112C106.97 10.9939 107.526 11.5495 107.946 12.2779C108.365 12.9939 108.575 13.8705 108.575 14.9075V21.4816H105.668V15.2964C105.668 14.605 105.464 13.9939 105.057 13.463C104.649 12.9322 104.069 12.6667 103.316 12.6667C102.699 12.6667 102.149 12.8828 101.668 13.3149C101.186 13.7347 100.945 14.3766 100.945 15.2408V21.4816H98.0381Z" fill="#14173A"/>
<path d="M90.8023 21.8149C89.5801 21.8149 88.4936 21.5557 87.543 21.0371C86.6047 20.5186 85.8702 19.8087 85.3393 18.9075C84.8208 17.9939 84.5615 16.9631 84.5615 15.8149C84.5615 14.7161 84.8146 13.7347 85.3208 12.8705C85.8393 11.9939 86.5368 11.3025 87.4134 10.7964C88.2899 10.2902 89.2591 10.0371 90.3208 10.0371C91.4072 10.0371 92.3764 10.2902 93.2282 10.7964C94.0924 11.2902 94.7776 11.963 95.2838 12.8149C95.79 13.6668 96.043 14.6359 96.043 15.7223V16.7779H89.1356C88.827 16.7779 88.5245 16.7594 88.2282 16.7223C87.9319 16.6853 87.6356 16.6421 87.3393 16.5927C87.4875 17.3952 87.8764 18.0557 88.506 18.5742C89.1356 19.0927 89.9257 19.352 90.8764 19.352C91.5801 19.352 92.2159 19.2038 92.7838 18.9075C93.3517 18.6112 93.8208 18.2408 94.1912 17.7964L94.8579 20.5186C94.3023 20.9507 93.6788 21.2717 92.9875 21.4816C92.2961 21.7038 91.5677 21.8149 90.8023 21.8149ZM87.2652 14.7964C87.8949 14.6729 88.5183 14.6112 89.1356 14.6112H91.5245C91.8578 14.6112 92.1727 14.6235 92.469 14.6482C92.7653 14.6729 93.0492 14.71 93.3208 14.7593C93.1356 14.0433 92.7714 13.4692 92.2282 13.0371C91.6974 12.605 91.0554 12.389 90.3023 12.389C89.5615 12.389 88.9196 12.6112 88.3764 13.0556C87.8331 13.5001 87.4628 14.0803 87.2652 14.7964Z" fill="#14173A"/>
<path d="M64.9912 21.4816V10.3704H67.6023V11.6853C68.0097 11.1421 68.5097 10.7346 69.1023 10.463C69.6949 10.1791 70.3184 10.0371 70.9727 10.0371C71.6517 10.0371 72.2875 10.1853 72.8801 10.4816C73.4727 10.7655 73.9665 11.1853 74.3616 11.7408C74.7937 11.1853 75.3369 10.7655 75.9912 10.4816C76.6456 10.1853 77.3493 10.0371 78.1024 10.0371C78.9048 10.0371 79.6517 10.2223 80.3431 10.5927C81.0345 10.963 81.5962 11.5001 82.0283 12.2038C82.4604 12.9075 82.6765 13.7532 82.6765 14.7408V21.4816H79.7505V15.1482C79.7505 14.4445 79.5468 13.8581 79.1394 13.389C78.7443 12.9198 78.2073 12.6853 77.5283 12.6853C77.1456 12.6853 76.7814 12.7717 76.4357 12.9445C76.09 13.1174 75.8122 13.3828 75.6024 13.7408C75.3925 14.0989 75.2875 14.5556 75.2875 15.1112V21.4816H72.3616V15.1482C72.3616 14.6791 72.269 14.2593 72.0838 13.889C71.8986 13.5063 71.6394 13.21 71.306 13.0001C70.9727 12.7779 70.5838 12.6667 70.1394 12.6667C69.769 12.6667 69.411 12.7593 69.0653 12.9445C68.7196 13.1174 68.4357 13.3828 68.2134 13.7408C68.0036 14.0989 67.8986 14.5556 67.8986 15.1112V21.4816H64.9912Z" fill="#14173A"/>
<path d="M56.9054 21.8149C55.8066 21.8149 54.8004 21.5495 53.8868 21.0186C52.9856 20.4878 52.2695 19.7779 51.7387 18.889C51.2078 18.0001 50.9424 17.0124 50.9424 15.926C50.9424 14.8396 51.2078 13.8519 51.7387 12.963C52.2695 12.0742 52.9856 11.3643 53.8868 10.8334C54.8004 10.3025 55.8004 10.0371 56.8868 10.0371C57.998 10.0371 59.0041 10.3025 59.9054 10.8334C60.8066 11.3643 61.5227 12.0742 62.0535 12.963C62.5967 13.8396 62.8683 14.8272 62.8683 15.926C62.8683 17.0001 62.5967 17.9878 62.0535 18.889C61.5227 19.7779 60.8066 20.4878 59.9054 21.0186C59.0041 21.5495 58.0041 21.8149 56.9054 21.8149ZM56.8868 19.1853C57.4918 19.1853 58.035 19.0371 58.5165 18.7408C58.998 18.4445 59.3807 18.0495 59.6646 17.5557C59.9486 17.0618 60.0906 16.5186 60.0906 15.926C60.0906 15.3211 59.9486 14.7779 59.6646 14.2964C59.3807 13.8026 58.998 13.4075 58.5165 13.1112C58.035 12.8149 57.4918 12.6667 56.8868 12.6667C56.2943 12.6667 55.7572 12.8149 55.2757 13.1112C54.7942 13.4075 54.4115 13.8026 54.1276 14.2964C53.8436 14.7779 53.7017 15.3211 53.7017 15.926C53.7017 16.5186 53.8436 17.0618 54.1276 17.5557C54.4115 18.0495 54.7942 18.4445 55.2757 18.7408C55.7572 19.0371 56.2943 19.1853 56.8868 19.1853Z" fill="#14173A"/>
<path d="M31.3711 21.4816V10.3704H33.9822V11.6853C34.3896 11.1421 34.8896 10.7346 35.4822 10.463C36.0748 10.1791 36.6983 10.0371 37.3526 10.0371C38.0316 10.0371 38.6674 10.1853 39.26 10.4816C39.8526 10.7655 40.3464 11.1853 40.7415 11.7408C41.1736 11.1853 41.7168 10.7655 42.3711 10.4816C43.0255 10.1853 43.7292 10.0371 44.4822 10.0371C45.2847 10.0371 46.0316 10.2223 46.723 10.5927C47.4144 10.963 47.9761 11.5001 48.4082 12.2038C48.8403 12.9075 49.0563 13.7532 49.0563 14.7408V21.4816H46.1304V15.1482C46.1304 14.4445 45.9267 13.8581 45.5193 13.389C45.1242 12.9198 44.5872 12.6853 43.9082 12.6853C43.5255 12.6853 43.1613 12.7717 42.8156 12.9445C42.4699 13.1174 42.1921 13.3828 41.9822 13.7408C41.7724 14.0989 41.6674 14.5556 41.6674 15.1112V21.4816H38.7415V15.1482C38.7415 14.6791 38.6489 14.2593 38.4637 13.889C38.2785 13.5063 38.0193 13.21 37.6859 13.0001C37.3526 12.7779 36.9637 12.6667 36.5193 12.6667C36.1489 12.6667 35.7909 12.7593 35.4452 12.9445C35.0995 13.1174 34.8155 13.3828 34.5933 13.7408C34.3834 14.0989 34.2785 14.5556 34.2785 15.1112V21.4816H31.3711Z" fill="#14173A"/>
</svg>
